<svg viewBox="0 0 32 32" xml:space="preserve" xmlns="http://www.w3.org/2000/svg" fill-rule="evenodd" clip-rule="evenodd" stroke-linejoin="round" stroke-miterlimit="2"><path d="M15.002 8h-.998a1 1 0 0 0 0 2h1.002l.002 1.002a1 1 0 0 0 2-.004L17.006 10h.998a1 1 0 0 0 0-2h-1.002L17 6.998a1 1 0 0 0-2 .004l.002.998Z" fill="#ffffff" class="fill-000000"></path><path d="M26 9V5c0-.796-.316-1.559-.879-2.121A2.996 2.996 0 0 0 23 2H9c-.796 0-1.559.316-2.121.879A2.996 2.996 0 0 0 6 5v22c0 .796.316 1.559.879 2.121A2.996 2.996 0 0 0 9 30h13.999a1 1 0 0 0 0-2H9a.997.997 0 0 1-1-1V5a.997.997 0 0 1 1-1h14a.997.997 0 0 1 1 1v4a1 1 0 0 0 2 0Z" fill="#ffffff" class="fill-000000"></path><path d="M23.982 14.206a3.001 3.001 0 0 0-1.99 2.825 2.98 2.98 0 0 0 2.992 2.987 1 1 0 1 1-.992 1.001 1 1 0 0 0-2 0c0 1.302.832 2.412 1.993 2.826l-.005 1.163a1 1 0 0 0 2 .008l.005-1.166a3.002 3.002 0 0 0 2.007-2.831 3.01 3.01 0 0 0-3.008-3.001.986.986 0 0 1-.992-.987 1 1 0 0 1 2-.006v.013a1 1 0 0 0 2-.007c0-1.309-.84-2.423-2.01-2.832l.01-1.179a1.001 1.001 0 0 0-2-.016l-.01 1.202ZM11 17.019h8a1 1 0 0 0 0-2h-8a1 1 0 0 0 0 2ZM11 21.031h8a1 1 0 0 0 0-2h-8a1 1 0 0 0 0 2ZM11 25.012h8a1 1 0 0 0 0-2h-8a1 1 0 0 0 0 2Z" fill="#ffffff" class="fill-000000"></path></svg>