<svg viewBox="0 0 512 512" xmlns="http://www.w3.org/2000/svg"><path d="M416 320h-96c-17.62 0-32-14.38-32-32s14.38-32 32-32h96s96-107 96-160-43-96-96-96-96 43-96 96c0 25.5 22.27 63.38 45.27 96H320c-52.88 0-96 43.12-96 96s43.13 96 96 96h96c17.62 0 32 14.38 32 32s-14.38 32-32 32H185.5c-16 24.75-33.75 47.75-47.25 64H416c52.88 0 96-43.13 96-96s-43.1-96-96-96zm0-256c17.75 0 32 14.25 32 32s-14.25 32-32 32-32-14.25-32-32 14.2-32 32-32zM96 256c-53 0-96 43-96 96s96 160 96 160 96-107 96-160-43-96-96-96zm0 128c-17.75 0-32-14.25-32-32s14.25-32 32-32 32 14.25 32 32-14.2 32-32 32z" fill="#ffffff" class="fill-000000"></path></svg>